<svg xmlns="http://www.w3.org/2000/svg" viewBox="0 0 952 162.2">
  <path fill="#fff" d="M952 36.2c0 14.6-11.4 26.1-26 26.1s-25.9-11.5-25.9-25.9 11.2-25.9 26-25.9c14.8-.1 25.9 11.1 25.9 25.7zm-2.8 0c0-13.1-9.8-23.1-23.1-23.1s-23.3 10.2-23.3 23.2 10 23.2 23.1 23.2c13.2.1 23.3-10.2 23.3-23.3zm-16.7 4.4 6.9 10.6h-4l-6.4-9.9c-.6.1-1.1.1-1.7.1h-7.6v9.8h-3.8V21.5h11.5c7.3 0 11.8 3.8 11.8 9.8-.1 4.6-2.5 7.8-6.7 9.3zm2.9-9.3c0-4.2-3-6.6-8.2-6.6h-7.5v13.4h7.5c5.2 0 8.2-2.5 8.2-6.8z"></path>
  <path fill="#fff" stroke="#fff" stroke-miterlimit="10" d="M301.9 158.9c-1.8-1.8-2.8-4.2-2.7-6.7V24.1c0-2.5.9-5 2.7-6.8 1.7-1.8 4.2-2.9 6.7-2.8h48.8c19 0 33.2 3.9 42.7 11.7s14.2 18.1 14.2 30.8c.1 8.2-2.4 16.2-7 22.9-4.7 6.9-11.5 11.9-20.4 15 10.1 2.7 16.9 8.9 20.6 18.7 3.6 9.3 5.5 19.1 5.5 29v9.6c.1 5.1-4 9.3-9.2 9.4h-.3c-2.6.1-5.1-.8-7-2.6-1.8-1.8-2.7-4.3-2.6-6.8v-6.4c0-6.5-.6-13-1.9-19.4-1.3-6.1-4.5-11.6-9-15.9-4.7-4.7-11.9-7-21.6-7h-43.3v48.6c.1 2.5-1 5-2.8 6.7-1.8 1.8-4.3 2.8-6.8 2.7-2.4.1-4.8-.8-6.6-2.6zm54.2-73.3c12 0 21.5-2.4 28.6-7.1 7-4.7 10.6-11.4 10.6-20.1 0-8.4-3-14.8-9.1-19.3s-16.4-6.7-31.1-6.7h-36.8v53.2h37.8zm90.7 70.3c-1.8-1.8-2.8-4.2-2.7-6.7V20c0-2.5.9-5 2.7-6.8 1.7-1.8 4.2-2.9 6.7-2.8 5.3 0 9.6 4.3 9.6 9.6v129.2c.1 2.5-1 5-2.8 6.7-1.8 1.8-4.3 2.8-6.8 2.7-2.6.1-5-.9-6.7-2.7zm55.4-1c-1.8-1.8-2.8-4.2-2.7-6.7V21.1c0-2.5.9-5 2.7-6.8 1.7-1.8 4.2-2.9 6.7-2.8H551c15.9 0 29.4 3.5 40.5 10.6 10.7 6.6 19.4 16.1 25 27.3 11.2 22.1 11.2 48.2 0 70.3-5.6 11.2-14.3 20.7-25 27.3-11.1 7-24.6 10.6-40.5 10.6h-42.1c-2.5.1-4.9-.9-6.7-2.7zm46.5-15.1c11.4 0 21.5-2.3 30.1-7 8.4-4.4 15.4-11.2 20.1-19.5 4.8-8.3 7.1-17.9 7.1-28.8s-2.4-20.5-7.1-28.8c-4.7-8.3-11.7-15-20.1-19.5-8.7-4.7-18.7-7-30.1-7h-30.1v110.5h30.1zm106.5 15.1c-1.8-1.8-2.8-4.2-2.7-6.7V21.1c0-2.5.9-5 2.7-6.8 1.7-1.9 4.2-2.9 6.7-2.8h83.9c4.9 0 9 4 9 8.9v.1c.1 2.4-.9 4.7-2.6 6.3-1.7 1.7-4 2.6-6.4 2.5h-74.3v46.3h66.8c4.9 0 9 3.9 9 8.9v.1c.1 2.4-.9 4.6-2.6 6.3-1.7 1.7-4 2.6-6.4 2.5h-66.8v46.5h74.3c4.9 0 9 4 9 8.9v.1c.1 2.4-.9 4.6-2.6 6.3-1.7 1.7-4 2.6-6.4 2.5h-83.9c-2.5-.1-4.9-1-6.7-2.8zm121.9-3.3c-1.7-.7-3.2-1.9-4.2-3.4-2.5-3.5-2.2-8.2.7-11.3 1.6-1.7 3.8-2.7 6.2-2.6 1.4 0 2.7.3 4 .8 13 5.7 27 8.7 41.2 8.6 24.4 0 36.6-8 36.6-24.1.1-4-1.6-7.9-4.7-10.5-3.4-2.9-7.4-5.2-11.6-6.6-4.6-1.6-11.2-3.5-19.7-5.8-9.3-2.3-18.4-5.1-27.4-8.5-6.9-2.6-13-6.8-18-12.2-5-5.4-7.5-12.7-7.5-21.8-.1-7.7 2.1-15.2 6.3-21.7 4.2-6.5 10.4-11.6 18.5-15.5s18-5.8 29.4-5.8c15.3 0 29.2 2.3 41.7 6.9 3.7 1.1 6.1 4.5 5.9 8.4 0 2.2-.8 4.4-2.3 6.1-1.5 1.8-3.7 2.8-6.1 2.7-1.2-.1-2.3-.4-3.3-.8-10.9-3.6-22.3-5.5-33.8-5.5-11 0-20 2.1-26.9 6.3-6.9 4.2-10.4 10-10.3 17.6-.2 4.6 1.6 9 4.9 12.2 3.5 3.3 7.7 5.8 12.3 7.3 6.6 2.2 13.4 4.1 20.2 5.5 9.1 2.1 18 4.8 26.7 8 6.7 2.6 12.7 6.9 17.4 12.3 4.8 5.6 7.2 13.1 7.2 22.6.1 7.5-2.3 14.9-6.7 21-4.5 6.2-10.7 11.1-18.8 14.6-8.1 3.5-17.4 5.2-28 5.2-17.2.2-34.2-3.2-49.9-10zm-555-50.8V87h43.1v13.8h-43.1z"></path>
  <path fill="#00c3ff" stroke="#00c3ff" stroke-width="4.5" d="M200.3 77.8c-.2-6.9-1.3-13.7-3.3-20.3-12.5-41.1-56-64.4-97.2-51.8-28 8.5-48.9 32-54 60.8-.5 2.5-.8 5.1-1 7.7L.4 73.6l44.2 8.1 22.2 4.1 78.8 14.5-11.4-17.4 42.2 12.3 20.9 6.1.1-.2c1.9-6.8 2.9-13.9 2.9-21v-2.3zm-91.7-12.6 12.4 10-54.2-.7c3.2-30.8 30.7-53.1 61.5-49.9 19.9 2.1 37.3 14.6 45.4 32.9 1.1 2.5 2 5 2.8 7.7h-67.9zm13.8 71c-25.6 0-48-17.5-54.3-42.3l-23-4.2c5.2 42.7 44 73.1 86.7 67.9 14.6-1.8 28.5-7.7 39.9-17l-12-18.5c-10.3 9-23.5 14.1-37.3 14.1z"></path>
</svg>